<?xml version="1.0" encoding="utf-8"?>
<!-- Generator: Adobe Illustrator 25.2.0, SVG Export Plug-In . SVG Version: 6.00 Build 0)  -->
<svg version="1.1" id="Layer_1" xmlns="http://www.w3.org/2000/svg" xmlns:xlink="http://www.w3.org/1999/xlink" x="0px" y="0px"
	 viewBox="0 0 25 25" style="enable-background:new 0 0 25 25;" xml:space="preserve">
<style type="text/css">
	.st0{clip-path:url(#SVGID_2_);}
	.st1{fill:#689F39;}
</style>
<g>
	<defs>
		<rect id="SVGID_1_" x="0.8" y="0.4" width="24" height="24"/>
	</defs>
	<clipPath id="SVGID_2_">
		<use xlink:href="#SVGID_1_"  style="overflow:visible;"/>
	</clipPath>
	<g class="st0">
		<path class="st1" d="M18.3,1.3c-1.1,0-2.2,0.3-3.2,0.9s-1.8,1.4-2.3,2.4c-0.5-1-1.3-1.8-2.3-2.4c-1-0.6-2.1-0.9-3.2-0.9
			C5.5,1.4,3.8,2.1,2.6,3.5S0.7,6.5,0.8,8.3c0,6.8,11,14.6,11.4,14.9l0.6,0.4l0.6-0.4c0.5-0.3,11.4-8.2,11.4-14.9
			c0.1-1.8-0.6-3.5-1.8-4.9C21.8,2.1,20.1,1.4,18.3,1.3z M12.8,21.2c-3.3-2.4-10-8.4-10-12.9C2.7,7.1,3.1,5.8,4,4.9
			c0.8-0.9,2-1.5,3.3-1.6c1.3,0.1,2.4,0.7,3.3,1.6c0.8,0.9,1.3,2.2,1.2,3.5h2c-0.1-1.3,0.4-2.5,1.2-3.5c0.8-0.9,2-1.5,3.3-1.6
			c1.3,0.1,2.4,0.7,3.3,1.6s1.3,2.2,1.2,3.5C22.8,12.8,16,18.8,12.8,21.2z"/>
	</g>
</g>
<polyline class="st1" points="12.8,21.8 5.9,16.6 1.7,9.8 3,5.7 4.8,3 8.6,2.4 11.3,4.1 12.8,7.6 14.8,3.7 18,2.4 21.3,3.4 
	23.4,6.7 23.4,10.3 21.5,14.5 16.6,19.6 12.8,22 "/>
</svg>
