<?xml version="1.0" encoding="utf-8"?>
<!-- Generator: Adobe Illustrator 25.2.0, SVG Export Plug-In . SVG Version: 6.00 Build 0)  -->
<svg version="1.1" id="Layer_1" xmlns="http://www.w3.org/2000/svg" xmlns:xlink="http://www.w3.org/1999/xlink" x="0px" y="0px"
	 viewBox="0 0 25 25" style="enable-background:new 0 0 25 25;" xml:space="preserve">
<style type="text/css">
	.st0{fill:#F17523;}
</style>
<path class="st0" d="M5.4,24.3c-0.6,0-1.2-0.2-1.7-0.7s-0.7-1-0.7-1.7V7.8c0-0.6,0.2-1.2,0.7-1.7c0.5-0.5,1-0.7,1.7-0.7h2.4
	c0-1.3,0.5-2.4,1.4-3.3s2-1.4,3.3-1.4s2.4,0.5,3.3,1.4s1.4,2,1.4,3.3h2.4c0.6,0,1.2,0.2,1.7,0.7c0.5,0.5,0.7,1,0.7,1.7v14.1
	c0,0.6-0.2,1.2-0.7,1.7c-0.5,0.5-1,0.7-1.7,0.7H5.4z M10.1,5.4h4.7c0-0.6-0.2-1.2-0.7-1.7c-0.5-0.5-1-0.7-1.7-0.7s-1.2,0.2-1.7,0.7
	C10.4,4.2,10.1,4.8,10.1,5.4z M16,11.3c0.3,0,0.6-0.1,0.8-0.3c0.2-0.2,0.3-0.5,0.3-0.8V7.8h-2.4v2.4c0,0.3,0.1,0.6,0.3,0.8
	C15.4,11.2,15.7,11.3,16,11.3z M9,11.3c0.3,0,0.6-0.1,0.8-0.3c0.2-0.2,0.3-0.5,0.3-0.8V7.8H7.8v2.4c0,0.3,0.1,0.6,0.3,0.8
	C8.4,11.2,8.6,11.3,9,11.3z"/>
</svg>
