<svg width="29" height="30" fill="none" xmlns="http://www.w3.org/2000/svg"><path fill-rule="evenodd" clip-rule="evenodd" d="m20.656 10.156 1.232 1.878a.793.793 0 0 1-.031.861l-1.232 1.878.153 2.28c0 .307-.154.615-.43.738l-2.034 1.016-1.016 2.032c-.154.276-.431.461-.739.43l-2.248-.123-1.88 1.231a.711.711 0 0 1-.43.123.704.704 0 0 1-.43-.123l-1.88-1.23-2.248.122c-.308 0-.616-.154-.738-.43l-1.017-2.032-2.033-1.016c-.276-.154-.462-.43-.43-.739l.122-2.247-1.232-1.878c-.154-.277-.154-.615 0-.862l1.232-1.878-.122-2.247c0-.307.153-.615.43-.738l2.033-1.016 1.017-2.032c.154-.276.43-.461.738-.43l2.249.123 1.878-1.232c.278-.153.616-.153.863 0l1.879 1.232 2.248-.154c.308 0 .616.154.739.43l1.016 2.032 2.033 1.016c.277.154.462.43.431.738l-.123 2.247ZM9.728 12.501a2.278 2.278 0 0 0 2.273-2.273 2.278 2.278 0 0 0-2.273-2.273 2.278 2.278 0 0 0-2.273 2.273 2.296 2.296 0 0 0 2.273 2.273Zm0-3.136a.834.834 0 1 1 0 1.668.834.834 0 0 1 0-1.668Zm-1.722 6.03a.778.778 0 0 0 1.1 1.1l6.89-6.889a.778.778 0 1 0-1.1-1.1l-6.89 6.89ZM12 14.773a2.278 2.278 0 0 1 2.273-2.273 2.296 2.296 0 0 1 2.272 2.273 2.296 2.296 0 0 1-2.272 2.272A2.278 2.278 0 0 1 12 14.773Zm1.44.028a.834.834 0 1 0 1.668 0 .834.834 0 0 0-1.669 0Z" fill="#5E9400"></path><mask id="supersaver_svg__a" maskUnits="userSpaceOnUse" x="7" y="7" width="10" height="11" style="mask-type: alpha;"><path fill-rule="evenodd" clip-rule="evenodd" d="M12 10.228A2.278 2.278 0 0 1 9.729 12.5a2.296 2.296 0 0 1-2.273-2.273 2.278 2.278 0 0 1 2.273-2.273 2.278 2.278 0 0 1 2.273 2.273Zm-1.437-.03a.834.834 0 1 0-1.67.001.834.834 0 0 0 1.67 0Zm-2.557 6.298a.778.778 0 0 1 0-1.1l6.89-6.89a.778.778 0 1 1 1.1 1.1l-6.89 6.89a.778.778 0 0 1-1.1 0Zm6.267-3.996A2.278 2.278 0 0 0 12 14.773a2.278 2.278 0 0 0 2.273 2.272 2.296 2.296 0 0 0 2.273-2.273 2.296 2.296 0 0 0-2.273-2.272Zm0 3.135a.834.834 0 1 1 .001-1.669.834.834 0 0 1 0 1.67Z" fill="#606060"></path></mask><g mask="url(#supersaver_svg__a)"><path fill="#fff" d="M0 .5h24v24H0z"></path></g></svg>