<svg xmlns="http://www.w3.org/2000/svg" viewBox="0 0 500 500"><defs><style>.cls-1{fill:#e57623;}.cls-2,.cls-8{fill:#fff;}.cls-2{opacity:0.7;}.cls-3,.cls-7{fill:#263238;}.cls-4,.cls-6{fill:none;}.cls-4,.cls-5,.cls-6,.cls-7,.cls-8{stroke:#263238;}.cls-4{stroke-miterlimit:10;}.cls-5{fill:#f9773e;}.cls-5,.cls-6,.cls-7,.cls-8{stroke-linecap:round;stroke-linejoin:round;}</style></defs><g id="Background_Simple" data-name="Background Simple"><path class="cls-1" d="M61.43,206.36S21,267.41,49.73,359.49s112.44,115.57,162.08,90,56.88-58.85,97-83,122.85-23.3,154.71-89.74-34.21-159.56-109-213.19S117.15,73.36,61.43,206.36Z"/><path class="cls-2" d="M61.39,206.79s-40.47,61-11.69,153.12,112.44,115.57,162.07,90,56.89-58.85,97-83,122.84-23.3,154.7-89.73S429.24,117.58,354.4,64,117.11,73.78,61.39,206.79Z"/></g><g id="Plant"><path class="cls-3" d="M318.78,338.1c3.58,1.56,12.31,1.36,12.32,1.36s-1.88-5.72-2.05-6.07c-1.91-4-8-10.63-12.9-10a5.89,5.89,0,0,0-4.73,7.38C312.24,334.23,315.74,336.77,318.78,338.1Z"/><path class="cls-3" d="M321.8,363.4c3.7.54,11.5-1.72,12.12-1.9a104.44,104.44,0,0,0,4.73,13.08c1.07,2.48,2.23,4.95,3.42,7.41-.71-1-1.36-2-1.46-2.09-2.91-3.36-10.5-8.15-15.08-6.2a5.89,5.89,0,0,0-2.61,8.37c1.69,3.08,5.74,4.6,9,5.08s10-1.31,11.78-1.81c.46.94.92,1.88,1.39,2.82,2.26,4.49,4.53,9,6.62,13.43.74,1.57,1.41,3.14,2.09,4.71-.63-.92-1.17-1.69-1.27-1.8-2.91-3.36-10.5-8.15-15.08-6.2a5.88,5.88,0,0,0-2.61,8.36c1.69,3.08,5.74,4.61,9,5.08s9.36-1.13,11.46-1.72c.64,1.64,1.29,3.27,1.84,4.88.35,1.11.77,2.15,1.06,3.28s.62,2.22.92,3.31c.51,2.13,1.05,4.32,1.5,6.4.32,1.45.6,2.84.88,4.24-.71-1.57-2.18-4.62-2.34-4.86-2.36-3.77-9.14-9.65-14-8.42a5.89,5.89,0,0,0-3.85,7.88c1.21,3.3,5,5.42,8.15,6.39,3.5,1.06,11.23.09,12.2,0,.46,2.31.89,4.57,1.26,6.7.2,1.13.38,2.19.55,3.25h3.08c-.23-1.22-.47-2.48-.73-3.79-.46-2.35-1-4.85-1.58-7.42a63.22,63.22,0,0,0,6.81-3.2c2.55,2.76,9.07,6,9.92,6.4-.89,2.18-1.78,4.3-2.64,6.28-.26.6-.52,1.16-.77,1.73h3.24l.24-.58c.92-2.21,1.84-4.6,2.78-7.06.93.2,8.59,1.76,12.16.95,3.24-.73,7.16-2.56,8.61-5.76a5.89,5.89,0,0,0-3.25-8.14c-4.72-1.59-11.92,3.77-14.56,7.35-.15.21-1.59,2.68-2.46,4.26.37-1,.75-2,1.12-3,.75-2,1.44-4.12,2.2-6.34.32-1.09.65-2.19,1-3.3s.59-2.29.89-3.44c.64-2.7,1.16-5.46,1.62-8.25,1.8.65,8.22,2.89,11.54,2.65s7.47-1.45,9.39-4.39a5.9,5.9,0,0,0-2-8.54c-4.43-2.28-12.36,1.92-15.51,5.06-.19.19-2.2,2.7-3.28,4.09.27-1.68.54-3.35.75-5.06.61-4.94,1.08-9.95,1.57-14.95.15-1.53.31-3.06.47-4.58.64.24,8.22,3.06,11.94,2.8,3.31-.24,7.47-1.45,9.38-4.4a5.89,5.89,0,0,0-2-8.54c-4.42-2.28-12.35,1.93-15.5,5.06-.24.24-3.12,3.85-3.81,4.8.36-3.36.74-6.71,1.26-10a102.76,102.76,0,0,1,2.87-13.15c.29.12,8.18,3.09,12,2.83,3.31-.24,7.46-1.45,9.38-4.4a5.89,5.89,0,0,0-2-8.54c-4.42-2.28-12.35,1.93-15.5,5.06-.25.25-3.35,4.13-3.86,4.88.07-.25.12-.52.2-.77a76,76,0,0,1,5.21-12.44c1.13-2.21,2.33-4.26,3.55-6.24,1.42.71,7.91,3.86,11.37,4s7.58-.62,9.81-3.33a5.9,5.9,0,0,0-1-8.71c-4.15-2.75-12.49.56-16,3.33-.19.15-1.94,1.89-3.19,3.18.56-.88,1.12-1.8,1.68-2.64,2.08-3.13,4.18-5.87,6.06-8.29,1.08-1.36,2.08-2.57,3-3.7,1.75,0,8.79-.24,11.87-1.69s6.44-4,7.17-7.48a5.9,5.9,0,0,0-4.93-7.25c-4.94-.53-10.82,6.25-12.63,10.31-.16.35-2,6.12-1.88,6.12h.11c-.94,1.06-1.93,2.21-3,3.49-1.94,2.38-4.1,5.08-6.26,8.18a106.24,106.24,0,0,0-6.49,10.34,76.83,76.83,0,0,0-5.54,12.48c0,.05,0,.11,0,.16,0-1.46,0-5.54-.08-5.85-.57-4.41-4.26-12.59-9.16-13.49a5.89,5.89,0,0,0-6.79,5.54c-.28,3.5,2.25,7,4.73,9.22,2.79,2.49,10.54,4.9,11.16,5.09a105.47,105.47,0,0,0-3.28,13.52c-.47,2.67-.87,5.36-1.23,8.07,0-1.26,0-2.39-.06-2.54-.58-4.41-4.27-12.59-9.16-13.5a5.89,5.89,0,0,0-6.8,5.54c-.28,3.5,2.26,7,4.73,9.22s9.08,4.44,10.82,5c-.12,1-.26,2.08-.39,3.12-.6,5-1.17,10-1.88,14.86-.25,1.71-.56,3.4-.87,5.08,0-1.12,0-2.06-.06-2.21-.57-4.4-4.26-12.58-9.15-13.49a5.89,5.89,0,0,0-6.8,5.54c-.28,3.5,2.25,7,4.73,9.22s8.44,4.22,10.51,4.89c-.36,1.71-.72,3.43-1.15,5.08-.32,1.12-.55,2.21-.93,3.32s-.71,2.19-1.06,3.27c-.75,2.06-1.51,4.18-2.29,6.17-.53,1.38-1.06,2.69-1.59,4,.27-1.7.72-5.06.73-5.34a22.79,22.79,0,0,0-3.07-11.12,6.41,6.41,0,0,0-.08-1.31,5.88,5.88,0,0,0-7.2-5c-4.81,1.28-7.86,9.72-8.09,14.16,0,.26.16,3.12.3,4.92-.24-1.05-.47-2.07-.73-3.14-.5-2.13-1.07-4.24-1.67-6.51-.33-1.08-.66-2.18-1-3.29s-.78-2.23-1.17-3.36c-.95-2.6-2-5.19-3.19-7.78,1.86-.44,8.45-2.12,11.09-4.15s5.43-5.33,5.4-8.84a5.88,5.88,0,0,0-6.36-6c-4.95.54-9.24,8.42-10.14,12.77-.05.27-.35,3.47-.48,5.23-.7-1.55-1.4-3.1-2.17-4.64-2.21-4.46-4.58-8.89-6.94-13.33-.72-1.36-1.42-2.73-2.13-4.09.67-.15,8.54-2,11.5-4.25,2.64-2,5.43-5.33,5.4-8.84a5.88,5.88,0,0,0-6.36-6c-4.94.54-9.24,8.42-10.14,12.77-.06.33-.48,4.93-.53,6.1-1.56-3-3.08-6-4.46-9a101.62,101.62,0,0,1-4.86-12.55c.31-.07,8.53-1.94,11.57-4.26,2.63-2,5.43-5.33,5.4-8.84a5.89,5.89,0,0,0-6.36-6c-4.95.53-9.24,8.42-10.14,12.77-.07.34-.51,5.29-.53,6.19-.08-.25-.18-.5-.26-.75a76.56,76.56,0,0,1-2.52-13.24c-.27-2.47-.4-4.85-.47-7.17,1.57-.19,8.72-1.14,11.68-2.94s6-4.69,6.34-8.19a5.88,5.88,0,0,0-5.66-6.69c-5,0-10.11,7.35-11.48,11.58-.07.23-.57,2.65-.91,4.42,0-1.05-.05-2.13-.05-3.13,0-3.76.25-7.21.48-10.26.15-1.73.32-3.3.49-4.76,1.44-1,7.2-5,9-7.95s3.14-6.93,1.85-10.2a5.89,5.89,0,0,0-8.11-3.33c-4.42,2.29-5.58,11.19-4.85,15.57.06.38,1.73,6.19,1.81,6.14l.08-.06c-.19,1.4-.38,2.91-.56,4.56-.3,3.05-.62,6.5-.7,10.28a104,104,0,0,0,.29,12.2,76.26,76.26,0,0,0,2.26,13.47,1.42,1.42,0,0,0,.05.16c-.79-1.23-3.09-4.6-3.3-4.84-2.9-3.36-10.5-8.14-15.08-6.2a5.89,5.89,0,0,0-2.61,8.37C314.47,361.4,318.52,362.92,321.8,363.4Z"/><path class="cls-3" d="M407.14,340c.08.05,1.59-5.81,1.64-6.19.62-4.4-.79-13.27-5.27-15.43a5.89,5.89,0,0,0-8,3.55c-1.2,3.3.32,7.35,2.12,10.14C399.74,335.36,407.14,340,407.14,340Z"/></g><g id="Question_Mark" data-name="Question Mark"><path class="cls-4" d="M321,164.64l2.76-19.53a120,120,0,0,0,14.94-10.84,58.35,58.35,0,0,0,11.38-12.9,37.75,37.75,0,0,0,5.7-15.35q.9-6.47-1.51-10.49t-7.94-4.8a10.77,10.77,0,0,0-8.16,1.67,10.14,10.14,0,0,0-3.91,7.14,16.91,16.91,0,0,0-.1,4.06c.13,1.27.3,2.66.51,4.15l-19.65,1.46a38.91,38.91,0,0,1-.76-6.3,34.28,34.28,0,0,1,.32-6.15q1.81-12.92,10.82-19.49t23.77-4.49q15.07,2.13,22.23,11.45t5,24.39a47.23,47.23,0,0,1-6,17.66,57.4,57.4,0,0,1-12,14.15,111.27,111.27,0,0,1-16.56,11.78l-2.13,15.07Zm-5.28,31.88,2.89-20.46,20.6,2.91-2.88,20.45Z"/></g><g id="Character"><path class="cls-5" d="M210.91,249s-64.19.85-66.19,5.42-11.13,59.92-11.7,79-.85,31.67,1.14,33.95,33.1,20.26,33.1,20.26-14.55,51.07-10,52.79,32.53,8.84,50.5,9.13,35.67.28,37.1.28,47.36,1.71,63.34-2,20.82-4,20.82-10.27-4-14-4.28-15.4,10.85-109.57,4.57-136.1-14.55-36.81-20.83-38.52-51.07-.57-51.07-.57Z"/><path class="cls-6" d="M245.1,272a61.08,61.08,0,0,1-6.67,3.35"/><path class="cls-6" d="M268.89,250.42a83.09,83.09,0,0,1-20.77,19.7"/><path class="cls-6" d="M265.09,261.84s-5.89,8.31-11.08,11.08"/><line class="cls-6" x1="224.29" y1="353.26" x2="222.61" y2="348.03"/><line class="cls-6" x1="233.45" y1="381.7" x2="226.02" y2="358.6"/><line class="cls-6" x1="235.74" y1="382.27" x2="243.15" y2="370.57"/><line class="cls-6" x1="252.57" y1="375.42" x2="270.54" y2="355.17"/><line class="cls-6" x1="206.18" y1="438.62" x2="244.87" y2="449.89"/><line class="cls-6" x1="194.94" y1="435.34" x2="201.58" y2="437.28"/><path class="cls-7" d="M210.51,122.13s-20.15-4.63-24,.55,3.82,10.08,2.73,11.17-24.52,13.07-22.62,24.79,17.71,23.7,18.26,27-18.26,4.36-20.71,9.26-6,28.06,14.44,35.69,46-5.18,53.12-5.18,14.17,13.9,22.34,13.08a19.82,19.82,0,0,0,12.81-6.81s8.44,11.72,20.7,6.81,26.43-22.07,20.44-27.24-12.81-6.81-8.45-11.44,13.35-16.89,12-27.52-13.9-11.44-18.8-14.71,5.45-8.72,5.18-17.71-6.82-24-40.05-34-49.58-5.18-51.22,3.27A14,14,0,0,0,210.51,122.13Z"/><path class="cls-8" d="M214.14,209.54s-6.81,42.5-7.08,43.86,12,13.62,28.6,11.44a39.3,39.3,0,0,0,25.06-13.34l-5.17-42.23s-14.17,6.81-22.89,6.54S214.14,209.54,214.14,209.54Z"/><polygon class="cls-7" points="211.34 232.34 240.03 226.79 214.14 209.54 211.34 232.34"/><path class="cls-8" d="M199,172.07s-4.8-6.08-7,1.6,7.36,17,7.36,17Z"/><path class="cls-8" d="M267.77,172.07s4.8-6.08,7,1.6-7.36,17-7.36,17Z"/><path class="cls-8" d="M214.08,133.65S200.34,147,198.35,151s-1.19,49.58,1,54,24.09,21.51,27.67,22.9,11.75,2.79,18.12-.4,21.7-19.51,23.3-23.69-.4-52-1.4-56.55S242,126.28,231.8,125.49,214.08,133.65,214.08,133.65Z"/><path class="cls-7" d="M224.88,125.49s20.58,18.78,35.38,19.5l14.81.72s-32.5-4.33-42.61-26.35C232.46,119.36,221.27,110,224.88,125.49Z"/><line class="cls-6" x1="236.38" y1="162.72" x2="237.97" y2="182.83"/><path class="cls-6" d="M239.57,187s-3.59,5.38-6.18,5.38-5.17-3-5.17-3"/><path class="cls-6" d="M217.86,193.58s4.58,7.57,10.56,8a42.22,42.22,0,0,0,12.34-1.4"/><path class="cls-7" d="M238.77,159.54s7-5.18,9.75-7,11.75,1.59,11.75,1.59-6.77-3.78-10.35-4.38-10.95,4.58-11.55,7S236,158.54,238.77,159.54Z"/><path class="cls-7" d="M224.43,160.49a4.91,4.91,0,0,0-4.38-3c-3.38-.2-18.32,3.79-15.73,3.79s13.34-.2,16.13-.2A9.69,9.69,0,0,0,224.43,160.49Z"/><path class="cls-3" d="M258.68,171.88a40.41,40.41,0,0,1-9.16,1c-4-.2-7.57-1.4-6,.39s4.78,3.39,9.75,2.39S260.07,173.67,258.68,171.88Z"/><path class="cls-3" d="M222.64,171.88a40.41,40.41,0,0,1-9.16,1c-4-.2-7.56-1.4-6,.39s4.78,3.39,9.76,2.39S224,173.67,222.64,171.88Z"/><path class="cls-8" d="M156.38,286.64s6-33,8.72-36.23,32.42-27.52,34.05-29.15,13.35-19.35,13.9-17.17-1.36,11.72-4.91,16.89-8.44,11.45-8.44,11.45S218,237.06,219,238.15s7.3,14.65,7.63,16.34c.58,2.92-.26,6.05-2.72,6.27-2.24.19-16.89-7.36-16.89-7.36L195.34,255s-8.44,10.35-14.17,12.26a50.41,50.41,0,0,1-7.9,2.18l.28,20.16Z"/><path class="cls-6" d="M200.58,238.65s15.91,2.13,16.88,2.91,9.21,12.93,9.21,12.93"/><path class="cls-6" d="M201.67,245.89s15.79,3.62,17,4.59,7.37,8.15,7.37,8.15"/><path class="cls-8" d="M226.32,384.84s-21.4-4-22.25-4.28-16-4.85-18-5.71-26.25-5.13-27.39-3.42-2.28,11.7-2.57,12.55-2.57,4.85-2,7.14a21.4,21.4,0,0,1,0,6.27s-.29,13.41,3.13,13.7,6.57-12.56,6.57-12.56,4.85,2.86,14.83,3.43,19.69-4.28,19.69-4.28L224.89,404Z"/><path class="cls-5" d="M152.31,280.82,181,286.07,179.93,304s6.35,3,8.28,20.71,7.46,58.73,6.08,61.77-9.94,16.3-29.83,17.13-30.66-17.4-32.59-23.21,8.29-43.81,8.84-47.12,3.31-26,5.8-29.83a30.27,30.27,0,0,1,5.52-6.36Z"/><path class="cls-6" d="M170.16,301.5a39.69,39.69,0,0,0,4.8.31"/><path class="cls-6" d="M152,297.11a100.89,100.89,0,0,0,11.42,3.24"/><path class="cls-5" d="M310.2,289.83l-2.85,73.61s-3.14.29-4.28,1.71a20.74,20.74,0,0,0-2,3.14s-28.81,1.14-42.51,5.14a132.46,132.46,0,0,0-22.82,8.84L223.18,382l-2.57,33.09,16.84.57s8.27,4.85,45.93,8.28,55.07,4.28,59.06-.29,5.71-11.7,6.28-15.4,7.42-26.54,7.42-59.64-31.1-81-37.95-91.87-14-10-18.83-8.84"/><polyline class="cls-6" points="324.86 358.36 307.35 363.44 323.9 348.03"/><line class="cls-6" x1="335.88" y1="355.17" x2="330.35" y2="356.77"/><path class="cls-6" d="M301.07,368.29s18.26,1.43,25.68,4.28"/><path class="cls-6" d="M329.41,384.55a34.62,34.62,0,0,1,2.48,2.86"/><path class="cls-6" d="M308.49,372.29a48.31,48.31,0,0,1,17.43,9"/><line class="cls-6" x1="235.45" y1="385.41" x2="235.74" y2="413.09"/><line class="cls-6" x1="221.76" y1="406.24" x2="233.74" y2="406.24"/><line class="cls-6" x1="224.61" y1="389.97" x2="229.46" y2="389.69"/></g></svg>